<mxfile host="app.diagrams.net" modified="2024-05-27T11:15:17.786Z" agent="Mozilla/5.0 (Windows NT 10.0; Win64; x64) AppleWebKit/537.36 (KHTML, like Gecko) Chrome/125.0.0.0 Safari/537.36" version="24.4.8" etag="kDTX04mqwASuUP13ZiVB" type="github">
  <diagram name="第 1 页" id="2gVuvUTzBrJcpBVo-4oF">
    <mxGraphModel>
      <root>
        <mxCell id="0" />
        <mxCell id="1" parent="0" />
      </root>
    </mxGraphModel>
  </diagram>
</mxfile>
